<svg width="389" height="403" viewBox="0 0 389 403" fill="none" xmlns="http://www.w3.org/2000/svg">
<path d="M187.286 93.3333C187.286 144.88 145.499 186.667 93.9524 186.667C42.4058 186.667 0.619019 144.88 0.619019 93.3333C0.619019 41.7868 42.4058 0 93.9524 0C145.499 0 187.286 41.7868 187.286 93.3333Z" fill="#5F95D8" fill-opacity="0.3"/>
<path d="M187.286 309.167C187.286 360.713 145.499 402.5 93.9524 402.5C42.4058 402.5 0.619019 360.713 0.619019 309.167C0.619019 257.62 42.4058 215.833 93.9524 215.833C145.499 215.833 187.286 257.62 187.286 309.167Z" fill="#7257D1"/>
<rect x="202.286" width="186.667" height="186.667" rx="50" fill="#5F95D8"/>
<path d="M202.286 265.667C202.286 238.052 224.671 215.667 252.286 215.667H338.952C366.567 215.667 388.952 238.052 388.952 265.667V352.333C388.952 379.948 366.567 402.333 338.952 402.333H252.286C224.672 402.333 202.286 379.948 202.286 352.333V265.667Z" fill="#6B56EB" fill-opacity="0.5"/>
<path d="M202.286 265.667C202.286 238.052 224.671 215.667 252.286 215.667H338.952C366.567 215.667 388.952 238.052 388.952 265.667V352.333C388.952 379.948 366.567 402.333 338.952 402.333H252.286C224.672 402.333 202.286 379.948 202.286 352.333V265.667Z" fill="#7257D1" fill-opacity="0.3"/>
</svg>
